<svg width="30" height="29" viewBox="0 0 30 29" fill="none" xmlns="http://www.w3.org/2000/svg">
<g clip-path="url(#clip0_5720_137682)">
<path d="M7.97361 6.89686H8.3885C9.01903 6.89686 9.53014 6.38557 9.53014 5.75522V2.60479V1.42637C9.53014 0.796019 9.01903 0.28479 8.3885 0.28479H7.97361C7.34314 0.28479 6.83203 0.796019 6.83203 1.42637V2.60485V5.75522C6.83203 6.38557 7.34314 6.89686 7.97361 6.89686Z" fill="#018076"/>
<path d="M22.6168 6.86854H23.0317C23.6622 6.86854 24.1733 6.35731 24.1733 5.7269V2.30575V1.39799C24.1733 0.767699 23.6622 0.25647 23.0317 0.25647H22.6168C21.9862 0.25647 21.4751 0.767699 21.4751 1.39799V2.30575V5.72684C21.4752 6.35731 21.9863 6.86854 22.6168 6.86854Z" fill="#018076"/>
<path d="M28.0313 2.60474H25.1014V6.02583C25.1014 7.16705 24.173 7.7965 23.0319 7.7965H22.617C21.4758 7.7965 20.5474 6.86805 20.5474 5.72683V2.60474H10.4584V5.75511C10.4584 6.89633 9.52996 7.82479 8.38874 7.82479H7.97385C6.83269 7.82479 5.9043 6.89633 5.9043 5.75511V2.60474H2.74316C1.7198 2.60474 0.887207 3.43733 0.887207 4.46074V26.8875C0.887207 27.9109 1.7198 28.7435 2.74316 28.7435H28.0313C29.0547 28.7435 29.8872 27.9109 29.8872 26.8875V4.46074C29.8873 3.43739 29.0547 2.60474 28.0313 2.60474ZM28.0313 26.8875H2.74322L2.74316 9.95139H28.0317L28.0326 26.8874C28.0325 26.8874 28.0322 26.8875 28.0313 26.8875Z" fill="#018076"/>
<path d="M16.3452 15.6322H19.6776C19.8097 15.6322 19.9168 15.5251 19.9168 15.393V12.5074C19.9168 12.3753 19.8097 12.2682 19.6776 12.2682H16.3452C16.2131 12.2682 16.106 12.3753 16.106 12.5074V15.393C16.106 15.5251 16.2131 15.6322 16.3452 15.6322Z" fill="#018076"/>
<path d="M21.7836 15.6322H25.1161C25.2482 15.6322 25.3553 15.5251 25.3553 15.393V12.5074C25.3553 12.3753 25.2482 12.2682 25.1161 12.2682H21.7836C21.6515 12.2682 21.5444 12.3753 21.5444 12.5074V15.393C21.5444 15.5251 21.6515 15.6322 21.7836 15.6322Z" fill="#018076"/>
<path d="M5.46869 20.3564H8.8011C8.9332 20.3564 9.0403 20.2493 9.0403 20.1172V17.2315C9.0403 17.0994 8.9332 16.9923 8.8011 16.9923H5.46869C5.33659 16.9923 5.22949 17.0994 5.22949 17.2315V20.1172C5.22949 20.2493 5.33659 20.3564 5.46869 20.3564Z" fill="#018076"/>
<path d="M10.9072 20.3564H14.2396C14.3717 20.3564 14.4788 20.2493 14.4788 20.1172V17.2315C14.4788 17.0994 14.3717 16.9923 14.2396 16.9923H10.9072C10.7751 16.9923 10.668 17.0994 10.668 17.2315V20.1172C10.668 20.2493 10.7751 20.3564 10.9072 20.3564Z" fill="#018076"/>
<path d="M16.3456 20.3564H19.6781C19.8102 20.3564 19.9173 20.2493 19.9173 20.1172V17.2315C19.9173 17.0994 19.8102 16.9923 19.6781 16.9923H16.3456C16.2135 16.9923 16.1064 17.0994 16.1064 17.2315V20.1172C16.1064 20.2493 16.2135 20.3564 16.3456 20.3564Z" fill="#018076"/>
<path d="M21.7836 20.3564H25.1161C25.2482 20.3564 25.3553 20.2493 25.3553 20.1172V17.2315C25.3553 17.0994 25.2482 16.9923 25.1161 16.9923H21.7836C21.6515 16.9923 21.5444 17.0994 21.5444 17.2315V20.1172C21.5444 20.2493 21.6515 20.3564 21.7836 20.3564Z" fill="#018076"/>
<path d="M8.80104 21.7166H5.46869C5.33659 21.7166 5.22949 21.8237 5.22949 21.9558V24.8415C5.22949 24.9736 5.33659 25.0807 5.46869 25.0807H8.8011C8.9332 25.0807 9.0403 24.9736 9.0403 24.8415V21.9558C9.04024 21.8237 8.93314 21.7166 8.80104 21.7166Z" fill="#018076"/>
<path d="M14.2396 21.7166H10.9072C10.7751 21.7166 10.668 21.8237 10.668 21.9558V24.8415C10.668 24.9736 10.7751 25.0807 10.9072 25.0807H14.2396C14.3717 25.0807 14.4788 24.9736 14.4788 24.8415V21.9558C14.4788 21.8237 14.3717 21.7166 14.2396 21.7166Z" fill="#018076"/>
<path d="M19.6781 21.7166H16.3456C16.2135 21.7166 16.1064 21.8237 16.1064 21.9558V24.8415C16.1064 24.9736 16.2135 25.0807 16.3456 25.0807H19.6781C19.8102 25.0807 19.9173 24.9736 19.9173 24.8415V21.9558C19.9173 21.8237 19.8102 21.7166 19.6781 21.7166Z" fill="#018076"/>
<path d="M25.1161 21.7166H21.7836C21.6515 21.7166 21.5444 21.8237 21.5444 21.9558V24.8415C21.5444 24.9736 21.6515 25.0807 21.7836 25.0807H25.1161C25.2482 25.0807 25.3553 24.9736 25.3553 24.8415V21.9558C25.3553 21.8237 25.2482 21.7166 25.1161 21.7166Z" fill="#018076"/>
</g>
<defs>
<clipPath id="clip0_5720_137682">
<rect width="29" height="29" fill="white" transform="translate(0.887207)"/>
</clipPath>
</defs>
</svg>
